<svg id="Layer_1" data-name="Layer 1" xmlns="http://www.w3.org/2000/svg" xmlns:xlink="http://www.w3.org/1999/xlink" viewBox="0 0 347 59"><defs><style>.cls-1,.cls-2,.cls-6{fill:none;}.cls-1{clip-rule:evenodd;}.cls-3{clip-path:url(#clip-path);}.cls-4{clip-path:url(#clip-path-2);}.cls-5{fill:#fefefe;}.cls-6{stroke:#0070b7;stroke-miterlimit:10;stroke-width:2px;}.cls-7{clip-path:url(#clip-path-3);}.cls-8{fill:#0070b7;}.cls-9{clip-path:url(#clip-path-5);}.cls-10{clip-path:url(#clip-path-7);}.cls-11{fill:#106fb2;}.cls-12{clip-path:url(#clip-path-9);}.cls-13{clip-path:url(#clip-path-11);}.cls-14{clip-path:url(#clip-path-13);}.cls-15{clip-path:url(#clip-path-15);}.cls-16{clip-path:url(#clip-path-17);}.cls-17{clip-path:url(#clip-path-19);}.cls-18{clip-path:url(#clip-path-21);}</style><clipPath id="clip-path"><polygon class="cls-1" points="175.53 9.05 170.56 49.76 340.28 49.76 345.25 9.05 175.53 9.05"/></clipPath><clipPath id="clip-path-2"><rect class="cls-2" x="-60" y="-52" width="970" height="156"/></clipPath><clipPath id="clip-path-3"><polygon class="cls-1" points="7.22 0 7.06 1.32 0 59.07 170.08 59.07 177.29 0 7.22 0"/></clipPath><clipPath id="clip-path-5"><path class="cls-1" d="M54.91,9.52H43.32l-4.87,40.7h8.18l1.8-15h5.38a13.37,13.37,0,0,0,8.68-2.84c2.48-2.08,4.16-5.48,4.16-10.56,0-4.06-1.33-7.16-3.49-9.23A11.76,11.76,0,0,0,54.91,9.52ZM51.85,28.08H49.3l1.35-11.36H52c4.49,0,6.18,2.31,6.23,5.45C58.17,25.49,56.47,28,51.85,28.08Zm74.21,4.44c4.82-1.46,7.08-5.9,7.06-10.59a13.72,13.72,0,0,0-2.61-8.09,11.17,11.17,0,0,0-9.38-4.32H109l-4.88,40.7h8.18l1.91-16.1h1.16c1.77,0,2.63.19,3.55,1.19s1.86,3,3.31,6.58l3.37,8.33h9l-5.53-13.28C128.26,35,127.5,33.54,126.06,32.52ZM118.17,27h-3.1l1.2-10h3.16c3.46,0,5.23,1.71,5.27,4.63C124.66,24.39,122.9,27,118.17,27ZM135.11,9.54l-.91,7.52H145l-4,33.15h8.18l4-33.15h11.14l0-.39.86-7.13Zm-35.3,4.66A16.66,16.66,0,0,0,87.31,9a19.52,19.52,0,0,0-14.74,6.49,24.1,24.1,0,0,0-5.83,16.31,19.57,19.57,0,0,0,5,13.65,17.11,17.11,0,0,0,12.68,5.3h0A18.93,18.93,0,0,0,98.9,44.38c3.59-4.05,5.72-9.84,5.72-16.79A19.36,19.36,0,0,0,99.81,14.21ZM84.51,42.49c-5.5,0-9.31-4.44-9.34-11.11,0-7.81,5.34-14.13,11.64-14.14,5.44,0,9.36,4.52,9.38,10.93C96.19,36.22,91,42.48,84.51,42.49ZM39.13,12.23A18,18,0,0,0,29.09,9,12.2,12.2,0,0,0,16.6,21.46c0,5.43,3.32,8.39,6.48,10.71s6.15,4.14,6.11,7.09c0,2.37-1.68,3.9-4.47,3.93s-6.9-1.92-9.57-4.2l-.63-.53-1.07,8.27.21.16a18.66,18.66,0,0,0,11.91,3.85h0a11.48,11.48,0,0,0,9-3.84,13.41,13.41,0,0,0,3-8.8c0-5.76-3.3-8.9-6.48-11.21S25,22.94,25,20.47s1.9-3.91,4.37-3.93,6.07,1.59,8.19,3.4l.62.52.12-.8,1-7.28Z"/></clipPath><clipPath id="clip-path-7"><polygon class="cls-1" points="213.57 41.76 209.35 41.76 208.71 25.36 208.65 25.36 201.03 41.76 198.95 41.76 195.32 24.9 195.27 24.9 190.62 41.76 186.21 41.76 192.91 17.51 197.71 17.51 201.03 32.76 207.96 17.51 212.6 17.51 213.57 41.76"/></clipPath><clipPath id="clip-path-9"><polygon class="cls-1" points="230.54 21.56 222.06 21.56 221.37 27.28 228.82 27.28 228.33 31.34 220.88 31.34 220.13 37.7 230.81 37.7 230.33 41.76 215.28 41.76 218.17 17.51 231.02 17.51 230.54 21.56"/></clipPath><clipPath id="clip-path-11"><path class="cls-1" d="M237.69,37.7h4.1c4.86,0,6.85-4.27,6.85-8.47s-2.41-7.68-6.94-7.68h-2.12Zm4.86-20.2c8.2,0,10.61,6.54,10.61,11.81,0,7.22-4.22,12.44-9.7,12.44H232.84l2.86-24.25Z"/></clipPath><clipPath id="clip-path-13"><polygon class="cls-1" points="258.15 41.76 253.78 41.76 256.68 17.51 261.05 17.51 258.15 41.76"/></clipPath><clipPath id="clip-path-15"><path class="cls-1" d="M267.59,33h4.76l-1.08-10.74h-.06Zm10.25,8.75h-4.5l-.63-5.3h-6.4l-2,5.3H259.5l10.07-24.57h4.65Z"/></clipPath><clipPath id="clip-path-17"><path class="cls-1" d="M293.33,23.37a9.12,9.12,0,0,0-5.1-2.13,2.71,2.71,0,0,0-2.9,2.67c0,3.48,7.58,3.94,7.58,10.74,0,3.91-2.35,7.43-7,7.43a10.86,10.86,0,0,1-7-2.31l.66-4.23A10.24,10.24,0,0,0,285.42,38a2.67,2.67,0,0,0,3-2.66c0-4-7.58-4.49-7.58-10.85A7.1,7.1,0,0,1,288,17.19a10.47,10.47,0,0,1,5.88,1.92Z"/></clipPath><clipPath id="clip-path-19"><polygon class="cls-1" points="309.62 21.56 301.15 21.56 300.44 27.28 307.9 27.28 307.42 31.34 299.97 31.34 299.21 37.7 309.89 37.7 309.41 41.76 294.36 41.76 297.26 17.51 310.1 17.51 309.62 21.56"/></clipPath><clipPath id="clip-path-21"><polygon class="cls-1" points="330.28 21.56 323.59 21.56 321.18 41.76 316.81 41.76 319.21 21.56 312.7 21.56 313.19 17.51 330.77 17.51 330.28 21.56"/></clipPath></defs><title>Artboard 1</title><g class="cls-3"><g class="cls-4"><rect class="cls-5" x="165.56" y="4.05" width="184.69" height="50.71"/></g></g><polygon class="cls-6" points="175.53 9.05 170.56 49.76 340.28 49.76 345.25 9.05 175.53 9.05"/><g class="cls-7"><g class="cls-4"><rect class="cls-8" x="-5" y="-5" width="187.29" height="69.07"/></g></g><g class="cls-9"><g class="cls-4"><rect class="cls-5" x="8.46" y="3.99" width="161.81" height="51.74"/></g></g><g class="cls-10"><g class="cls-4"><rect class="cls-11" x="181.21" y="12.51" width="37.36" height="34.25"/></g></g><g class="cls-12"><g class="cls-4"><rect class="cls-11" x="210.28" y="12.51" width="25.75" height="34.25"/></g></g><g class="cls-13"><g class="cls-4"><rect class="cls-11" x="227.84" y="12.51" width="30.32" height="34.25"/></g></g><g class="cls-14"><g class="cls-4"><rect class="cls-11" x="248.78" y="12.51" width="17.27" height="34.25"/></g></g><g class="cls-15"><g class="cls-4"><rect class="cls-11" x="254.5" y="12.19" width="28.35" height="34.57"/></g></g><g class="cls-16"><g class="cls-4"><rect class="cls-11" x="273.94" y="12.19" width="24.99" height="34.9"/></g></g><g class="cls-17"><g class="cls-4"><rect class="cls-11" x="289.36" y="12.51" width="25.74" height="34.25"/></g></g><g class="cls-18"><g class="cls-4"><rect class="cls-11" x="307.7" y="12.51" width="28.07" height="34.25"/></g></g></svg>